<?xml version="1.0" encoding="UTF-8" standalone="no"?>
<!DOCTYPE svg PUBLIC "-//W3C//DTD SVG 1.1//EN" "http://www.w3.org/Graphics/SVG/1.1/DTD/svg11.dtd">
<!-- Created with Vectornator (http://vectornator.io/) -->
<svg stroke-miterlimit="10" style="fill-rule:nonzero;clip-rule:evenodd;stroke-linecap:round;stroke-linejoin:round;" version="1.1" viewBox="0 0 48 48" xml:space="preserve" xmlns="http://www.w3.org/2000/svg" xmlns:xlink="http://www.w3.org/1999/xlink">
<defs/>
<g id="Folder">
<path d="M40 12L22 12L18 8L8 8C5.8 8 4 9.8 4 12L4 20L44 20L44 16C44 13.8 42.2 12 40 12Z" fill="#3c80f1" fill-rule="evenodd" opacity="1" stroke="none"/>
<path d="M40 12L8 12C5.8 12 4 13.8 4 16L4 36C4 38.2 5.8 40 8 40L40 40C42.2 40 44 38.2 44 36L44 16C44 13.8 42.2 12 40 12Z" fill="#5492ff" fill-rule="evenodd" opacity="1" stroke="none"/>
</g>
</svg>
