<svg version="1.1" id="Layer_1" xmlns="http://www.w3.org/2000/svg" xmlns:xlink="http://www.w3.org/1999/xlink" x="0px" y="0px"
	 width="100%" viewBox="0 0 844 486" enable-background="new 0 0 844 486" xml:space="preserve">
<path fill="#F2F4F6" opacity="1.000000" stroke="none" 
	d="
M505.000000,487.000000 
	C336.666687,487.000000 168.833389,487.000000 1.000068,487.000000 
	C1.000045,325.000061 1.000045,163.000122 1.000023,1.000133 
	C282.333221,1.000088 563.666443,1.000088 844.999756,1.000044 
	C844.999878,162.999863 844.999878,324.999725 844.999939,486.999786 
	C731.833313,487.000000 618.666687,487.000000 505.000000,487.000000 
M160.287659,301.383118 
	C155.790161,301.429291 151.290237,301.592590 146.795624,301.499786 
	C132.980545,301.214569 120.613831,297.067078 110.390694,287.453094 
	C106.419617,283.718597 102.519287,279.908844 98.304985,275.862915 
	C96.232338,277.528259 94.095451,279.245209 91.678017,281.187592 
	C98.968338,290.220673 106.705849,297.914001 116.624245,303.064941 
	C131.697098,310.892761 147.789459,311.959503 164.295792,309.784821 
	C186.959671,306.798798 205.147217,293.176453 207.479736,268.047882 
	C208.839005,253.404297 206.666229,239.670975 195.212784,229.076065 
	C185.019745,219.647079 172.140274,216.212830 159.002518,213.394806 
	C148.922577,211.232697 138.625946,209.610153 128.909760,206.318726 
	C107.302780,198.999191 98.384117,173.311676 110.173325,153.739532 
	C111.852707,150.951477 114.058388,148.133286 116.702820,146.329254 
	C135.761810,133.327179 156.316330,133.619675 176.692719,141.837051 
	C184.692596,145.063248 191.288818,151.770035 198.944412,157.189133 
	C205.481491,153.666382 205.715668,153.143250 200.094894,147.236115 
	C196.903702,143.882355 193.413193,140.615799 189.521378,138.159332 
	C168.973663,125.189896 146.816788,125.040184 124.582870,132.044693 
	C98.506752,140.259659 87.294960,172.682983 101.618637,196.113068 
	C109.090271,208.334854 120.828865,214.281662 134.035538,217.658905 
	C145.954056,220.706726 158.165283,222.630264 170.042206,225.814957 
	C182.485947,229.151642 192.772446,235.766678 196.553360,249.061157 
	C199.151199,258.195740 199.079575,267.563293 196.069290,276.638031 
	C190.536667,293.316559 177.296585,299.381287 160.287659,301.383118 
M683.652283,210.075165 
	C673.399902,225.265747 663.267456,240.539581 652.816406,255.592209 
	C649.971985,259.688934 649.639771,263.678192 650.665771,268.630463 
	C652.671692,268.630463 654.476318,268.630463 656.280945,268.630463 
	C682.614014,268.630585 708.947571,268.713593 735.279541,268.545990 
	C739.472290,268.519318 740.833740,269.832458 740.612976,273.957947 
	C740.310547,279.608337 740.537659,285.287109 740.537781,290.953705 
	C740.537842,296.393616 740.537781,301.833527 740.537781,307.268524 
	C743.896851,307.268524 746.446106,307.268524 749.462708,307.268524 
	C749.462708,295.866791 749.629028,284.891876 749.377686,273.926514 
	C749.282471,269.771881 750.585999,268.390137 754.752319,268.548584 
	C762.360718,268.837921 769.988037,268.630859 777.688171,268.630859 
	C777.688171,265.526703 777.688171,263.113617 777.688171,260.167725 
	C769.913147,260.167725 762.440796,259.921478 754.995056,260.260529 
	C750.563660,260.462311 749.329346,259.013458 749.367126,254.620407 
	C749.569092,231.122391 749.462402,207.621735 749.462219,184.121979 
	C749.462097,168.122147 749.501892,152.122070 749.401733,136.122864 
	C749.391357,134.467300 749.074097,132.057846 747.991699,131.307602 
	C744.841492,129.124146 736.654663,131.556610 734.388367,134.911102 
	C717.600830,159.759613 700.820618,184.613052 683.652283,210.075165 
M264.494965,186.998764 
	C261.750854,190.399994 259.006744,193.801208 255.787827,197.790955 
	C255.787827,171.831833 255.787827,146.559937 255.787827,120.973312 
	C252.582611,120.973312 249.736664,120.973312 246.902878,120.973312 
	C246.902878,183.343384 246.902878,245.254303 246.902878,307.341736 
	C249.998123,307.341736 252.722061,307.341736 255.888077,307.341736 
	C255.888077,305.174957 255.888062,303.374817 255.888062,301.574646 
	C255.888123,273.079956 255.944794,244.585068 255.862427,216.090607 
	C255.825806,203.420624 261.595062,194.254532 272.774963,188.939453 
	C277.928833,186.489212 283.790863,184.808075 289.466888,184.306412 
	C309.707825,182.517426 326.148041,190.572983 329.774109,213.571091 
	C330.626617,218.977783 330.907318,224.520599 330.934967,230.003403 
	C331.055908,253.998337 330.987030,277.994232 330.987030,301.989777 
	C330.987030,303.748169 330.987061,305.506592 330.987061,307.351624 
	C334.291901,307.351624 336.857635,307.351624 339.579254,307.351624 
	C339.705475,306.209930 339.871674,305.406311 339.871979,304.602600 
	C339.882202,276.941101 340.216400,249.272690 339.653015,221.622604 
	C339.497345,213.981903 337.864166,205.877213 334.842163,198.877716 
	C323.918884,173.577286 286.975311,167.298706 264.494965,186.998764 
M537.728943,226.500015 
	C537.728943,213.441528 537.728943,200.383026 537.728943,186.792908 
	C548.273560,186.792908 557.850586,186.792908 567.572510,186.792908 
	C567.572510,183.830811 567.572510,181.432724 567.572510,178.506516 
	C561.294373,178.506516 555.334229,178.506516 549.374146,178.506516 
	C537.729126,178.506516 537.729126,178.506516 537.729126,167.123337 
	C537.729126,161.127869 537.730896,155.132416 537.728699,149.136948 
	C537.726013,141.721283 537.322449,141.425644 529.100098,143.234283 
	C529.100098,144.752426 529.100159,146.384598 529.100098,148.016785 
	C529.099915,155.011490 529.106995,162.006226 529.097717,169.000916 
	C529.085999,177.887482 528.489075,178.496902 519.867737,178.505859 
	C517.203064,178.508636 514.538452,178.504379 511.873779,178.506912 
	C504.600555,178.513794 503.869446,179.565979 506.311523,186.974152 
	C511.519958,186.974152 516.862793,187.297058 522.147339,186.880402 
	C527.109802,186.489136 528.680664,187.919876 528.640747,193.155823 
	C528.387024,226.462021 528.502380,259.771088 528.531921,293.079193 
	C528.533997,295.399475 528.673218,297.742065 529.014404,300.034698 
	C529.625366,304.139740 532.267029,307.125427 536.177856,307.297974 
	C545.921021,307.727783 555.695801,307.439514 565.563354,307.439514 
	C565.563354,304.605988 565.563354,302.207886 565.563354,299.277130 
	C557.946777,299.277130 550.639282,298.969879 543.373230,299.385773 
	C538.576599,299.660309 537.596252,297.872192 537.636902,293.449280 
	C537.838623,271.467773 537.728699,249.483398 537.728943,226.500015 
M452.995483,200.509033 
	C452.995483,236.093307 452.995483,271.677582 452.995483,307.376770 
	C456.331696,307.376770 458.915527,307.376770 462.106995,307.376770 
	C462.106995,267.178253 462.106995,227.289551 462.106995,186.809570 
	C471.944153,186.809570 481.187592,186.809570 490.542450,186.809570 
	C490.542450,183.970642 490.542450,181.733200 490.542450,178.895248 
	C480.988525,178.895248 471.748657,178.895248 462.329834,178.895248 
	C462.329834,161.887451 462.329834,145.485367 462.329834,128.419113 
	C471.885559,128.419113 481.133759,128.419113 490.427734,128.419113 
	C490.427734,125.542915 490.427734,123.338211 490.427734,120.852348 
	C482.327637,120.852348 474.670563,120.851219 467.013458,120.852623 
	C456.223083,120.854591 453.072540,123.912735 453.013947,134.751495 
	C452.941864,148.083893 452.883942,161.418488 453.064056,174.748825 
	C453.117218,178.684982 451.784271,180.098251 447.852356,179.926285 
	C442.079559,179.673813 436.287506,179.861237 430.391663,179.861237 
	C430.391663,182.486649 430.391663,184.519974 430.391663,187.090958 
	C438.020172,187.090958 445.270813,187.090958 452.995483,187.090958 
	C452.995483,191.585953 452.995483,195.549423 452.995483,200.509033 
M388.111969,220.500000 
	C388.111969,249.387299 388.111969,278.274597 388.111969,307.408081 
	C391.332611,307.408081 393.899933,307.408081 396.736816,307.408081 
	C396.736816,264.443451 396.736816,221.782272 396.736816,179.173615 
	C388.440216,177.596695 388.112854,177.848236 388.112183,185.559158 
	C388.111176,196.872772 388.112061,208.186386 388.111969,220.500000 
M427.690796,381.625427 
	C428.465149,377.011383 432.180298,379.735779 434.457825,378.862701 
	C436.025757,378.261566 438.648712,377.356720 438.723175,376.422119 
	C439.139557,371.195770 438.923462,365.919067 438.923462,360.458160 
	C429.654602,360.458160 421.094757,360.458160 412.322632,360.458160 
	C412.322632,366.651093 412.322632,372.517792 412.322632,378.918182 
	C415.143555,378.918182 417.609802,379.005463 420.067322,378.896637 
	C423.310852,378.752991 423.348663,380.840759 423.352478,383.173004 
	C423.356415,385.559753 423.119171,387.515808 419.970825,387.422577 
	C416.811340,387.328949 413.630493,387.257568 410.493622,387.548920 
	C409.617371,387.630280 408.863525,389.029541 408.053497,389.824219 
	C408.869385,390.440063 409.679016,391.581970 410.502106,391.591766 
	C420.654694,391.712799 430.809814,391.713074 440.962280,391.585144 
	C441.806488,391.574524 442.636200,390.409485 443.472656,389.780792 
	C442.618683,389.000244 441.827179,387.647614 440.899078,387.546326 
	C438.101746,387.240936 435.234802,387.225952 432.425629,387.462128 
	C428.661194,387.778625 427.180084,386.222992 427.690796,381.625427 
M341.447632,395.890106 
	C343.609924,395.888092 345.796021,396.073761 347.924408,395.804199 
	C348.973083,395.671387 349.915192,394.697083 350.905518,394.103577 
	C349.953369,393.455414 349.033173,392.751282 348.036102,392.181763 
	C347.503998,391.877838 346.839020,391.806519 346.179382,391.614319 
	C346.179382,389.156494 346.179382,386.927490 346.179382,384.726776 
	C347.884857,384.258392 349.259705,383.880798 350.826416,383.450531 
	C350.826416,379.389862 350.826691,375.589630 350.826324,371.789368 
	C350.825958,367.963715 351.012878,364.123657 350.720551,360.320404 
	C350.620636,359.020691 349.317444,357.813477 348.564056,356.563995 
	C347.823578,357.814728 346.613098,359.004791 346.442139,360.329010 
	C346.104156,362.946777 346.340668,365.638794 346.340637,368.300110 
	C346.340393,380.425293 346.340515,380.424927 334.448792,380.426331 
	C332.120148,380.426605 329.777649,380.284760 327.469513,380.503601 
	C326.510529,380.594513 325.625000,381.459503 324.706055,381.972504 
	C325.581787,382.693207 326.389465,383.531036 327.357300,384.093231 
	C327.998871,384.465942 328.869751,384.443878 329.653625,384.601654 
	C329.653625,387.178955 329.653625,389.437317 329.653625,391.566956 
	C329.060516,391.828552 328.756104,391.948761 328.464142,392.093964 
	C327.065155,392.789886 325.669525,393.492554 324.272705,394.192810 
	C325.679260,394.758057 327.062866,395.729797 328.496735,395.810760 
	C332.476044,396.035461 336.476288,395.889435 341.447632,395.890106 
M537.615234,395.919922 
	C542.947815,395.919861 548.285889,396.056122 553.609802,395.841125 
	C555.322998,395.771912 556.998840,394.776947 558.691772,394.205475 
	C557.076843,393.557587 555.484802,392.428833 553.842834,392.350983 
	C548.688416,392.106598 543.514404,392.305298 538.349976,392.216187 
	C537.291565,392.197937 536.241943,391.675201 535.188232,391.384979 
	C535.250244,390.907257 535.312317,390.429535 535.374329,389.951813 
	C537.110962,389.856903 538.847046,389.696167 540.584473,389.679810 
	C545.250061,389.635925 549.941833,389.915863 554.564209,389.463531 
	C555.724121,389.350037 557.533813,386.942932 557.501282,385.628113 
	C557.449951,383.550385 556.209473,379.780945 555.272949,379.718567 
	C547.808167,379.221283 540.295166,379.366455 532.800842,379.513367 
	C532.004700,379.528961 531.233582,380.821960 530.450928,381.522369 
	C531.402161,382.233124 532.328918,383.516296 533.308838,383.558289 
	C538.299133,383.772125 543.303772,383.625824 548.302185,383.694031 
	C549.789307,383.714355 551.272522,384.021271 552.757568,384.196869 
	C552.729553,384.758148 552.701538,385.319397 552.673523,385.880676 
	C545.585938,385.880676 538.498413,385.880676 531.344971,385.880676 
	C531.344971,389.698303 531.344971,392.576752 531.344971,395.919739 
	C533.386475,395.919739 535.020813,395.919739 537.615234,395.919922 
M248.501007,389.634583 
	C249.667480,389.634705 250.833939,389.634949 252.000412,389.634918 
	C260.873444,389.634705 260.876770,389.634308 259.890839,380.725922 
	C259.857422,380.424011 259.614349,380.145294 259.150421,379.221313 
	C251.527740,379.221313 243.577103,379.167267 235.629852,379.306793 
	C234.854172,379.320404 234.099442,380.526794 233.335007,381.179535 
	C234.222137,381.710724 235.096680,382.675354 235.998459,382.701538 
	C241.159943,382.851501 246.328613,382.732422 251.493210,382.810883 
	C252.916275,382.832489 254.333817,383.217346 255.753906,383.435516 
	C255.725128,383.953613 255.696350,384.471741 255.667572,384.989868 
	C254.134735,385.128143 252.603088,385.368042 251.068878,385.385742 
	C246.403610,385.439606 241.733322,385.529602 237.072662,385.374664 
	C232.471863,385.221710 233.251129,388.394714 233.147842,391.173248 
	C233.047668,393.867401 233.031372,396.092407 236.896896,395.962189 
	C243.721313,395.732269 250.560974,395.980286 257.389313,395.818817 
	C258.567047,395.790985 259.720276,394.726807 260.884827,394.141296 
	C259.738678,393.525116 258.609528,392.416901 257.443481,392.376587 
	C251.950958,392.186768 246.447632,392.334290 240.949753,392.254059 
	C239.716980,392.236084 238.490524,391.786560 237.261154,391.535706 
	C237.317123,390.901672 237.373093,390.267670 237.429062,389.633636 
	C240.792847,389.633636 244.156647,389.633636 248.501007,389.634583 
M657.469849,361.139679 
	C657.469849,369.521118 657.469849,377.902557 657.469849,387.135651 
	C664.141052,386.662659 670.392639,386.288727 676.622009,385.685913 
	C677.361450,385.614319 677.979797,384.291687 678.654236,383.548950 
	C677.884949,383.083496 677.134460,382.270782 676.342285,382.227783 
	C674.876160,382.148315 673.388245,382.645111 671.904541,382.677612 
	C668.355530,382.755310 664.803650,382.702667 660.949036,382.702667 
	C660.949036,379.367340 660.949036,376.553284 660.949097,373.739227 
	C660.949158,364.663452 660.949097,364.663605 669.795105,364.629181 
	C670.793152,364.625305 671.911499,364.900452 672.758362,364.539734 
	C673.789124,364.100739 674.591370,363.125092 675.492493,362.381592 
	C674.530212,361.697998 673.582458,360.451324 672.603149,360.426025 
	C667.793091,360.301666 662.974609,360.501892 657.469849,361.139679 
M633.528625,369.183105 
	C630.458740,369.183105 627.388855,369.183105 624.412476,369.183105 
	C624.412476,366.301758 624.412476,364.376373 624.412476,361.932007 
	C631.039124,361.932007 637.334351,362.006317 643.624512,361.860321 
	C644.697632,361.835388 645.748779,360.867645 646.810120,360.335449 
	C645.727295,359.650421 644.660095,358.403076 643.559082,358.372467 
	C636.898499,358.187378 630.228760,358.360321 623.565186,358.240845 
	C620.906006,358.193207 620.010864,359.309845 620.119507,361.816010 
	C620.234802,364.477386 619.865906,367.192413 620.279480,369.793213 
	C620.463440,370.949738 622.017456,372.745697 623.001648,372.780579 
	C630.158081,373.033783 637.329041,372.970825 644.491821,372.828033 
	C645.310059,372.811707 646.106140,371.684418 646.912537,371.072296 
	C646.111328,370.450531 645.341309,369.346161 644.503418,369.291992 
	C641.184021,369.077362 637.843384,369.191376 633.528625,369.183105 
M461.617249,369.191711 
	C459.075500,368.938538 455.737701,370.391113 455.775696,365.511414 
	C455.814087,360.583466 459.227173,362.065033 461.715942,361.974335 
	C466.031281,361.817017 470.362030,362.051117 474.674042,361.853333 
	C475.915527,361.796356 477.114899,360.821259 478.333557,360.267090 
	C477.053162,359.607269 475.808929,358.480957 474.485352,358.378296 
	C471.016083,358.109314 467.512207,358.286621 464.022125,358.286591 
	C450.950531,358.286469 450.947784,358.286804 452.167328,371.582794 
	C452.193268,371.865540 452.495361,372.122986 453.005432,372.915558 
	C460.445435,372.915558 468.219696,372.984039 475.989258,372.823730 
	C476.899384,372.804932 477.783539,371.525116 478.679749,370.829926 
	C477.802979,370.286255 476.942169,369.305359 476.046814,369.272675 
	C471.565430,369.109344 467.075012,369.194458 461.617249,369.191711 
M369.616241,358.843536 
	C365.979797,359.887939 362.166534,361.276733 362.197937,365.654968 
	C362.213898,367.884277 363.759186,371.153198 365.586792,372.129395 
	C372.037781,375.575134 379.066284,375.858459 385.544342,372.190704 
	C387.493469,371.087097 389.590576,367.885803 389.358185,365.911774 
	C389.093933,363.667694 386.630310,360.464691 384.530029,359.905762 
	C380.022919,358.706268 375.134918,358.937805 369.616241,358.843536 
M251.418701,358.140045 
	C245.803864,358.140045 240.189026,358.140045 234.349731,358.140045 
	C234.349731,362.597015 234.349731,366.448120 234.349731,370.762665 
	C242.368027,370.762665 249.999069,370.846161 257.623932,370.666962 
	C258.689850,370.641907 259.725433,369.326874 260.775055,368.608948 
	C260.578705,368.116913 260.382385,367.624878 260.186035,367.132843 
	C254.074295,367.132843 247.956711,367.274353 241.855316,367.023254 
	C240.501419,366.967529 238.315033,365.747009 238.051208,364.681610 
	C237.313461,361.702332 239.785919,361.780090 241.847198,361.780670 
	C247.008591,361.782135 252.172531,361.849457 257.328827,361.683350 
	C258.171631,361.656219 258.980499,360.574921 259.805023,359.980804 
	C258.995636,359.373657 258.252075,358.398895 257.362488,358.239563 
	C255.748245,357.950470 254.047043,358.146698 251.418701,358.140045 
M209.641617,363.950317 
	C208.842270,362.730957 208.106094,360.511475 207.233231,360.456390 
	C201.995102,360.125641 196.725571,360.292267 191.597168,360.292267 
	C189.093552,378.195526 190.222839,379.628174 205.554688,378.893311 
	C205.720825,378.885345 205.956924,378.962952 206.043671,378.879395 
	C207.253174,377.715057 209.282425,376.650177 209.472549,375.325684 
	C209.964355,371.899475 209.642807,368.356506 209.641617,363.950317 
M681.342651,360.120483 
	C681.342285,370.767151 681.243652,381.415771 681.452148,392.058350 
	C681.481995,393.582642 682.995667,395.077820 683.822693,396.586487 
	C684.490479,395.153076 685.669312,393.742401 685.734131,392.282196 
	C685.967834,387.022491 685.825989,381.746063 685.825989,377.314240 
	C688.409302,375.906586 690.113647,374.977905 691.817993,374.049225 
	C690.012329,373.027008 688.206604,372.004822 685.819885,370.653687 
	C685.819885,367.459839 685.945923,363.651764 685.740906,359.861603 
	C685.681641,358.765106 684.672058,357.720001 684.098083,356.651337 
	C683.184387,357.528229 682.270752,358.405151 681.342651,360.120483 
M556.741699,368.098511 
	C558.694275,363.350922 557.904480,360.737183 553.421570,359.003540 
	C547.344360,356.653351 541.005554,356.547455 535.004395,359.007294 
	C533.053040,359.807098 530.578430,362.510254 530.649475,364.248505 
	C530.735657,366.352875 532.877930,369.563385 534.812073,370.189453 
	C541.999756,372.516174 549.414734,373.317566 556.741699,368.098511 
M577.950623,375.258240 
	C578.869324,376.468353 579.695374,378.621887 580.722961,378.722717 
	C584.829102,379.125610 589.004944,379.019043 593.138428,378.795166 
	C594.093018,378.743439 595.747559,377.514984 595.779053,376.772888 
	C596.007141,371.395050 595.901489,366.003052 595.901489,360.595886 
	C589.510620,360.595886 583.964539,360.595886 577.949036,360.595886 
	C577.949036,365.416412 577.949036,369.864349 577.950623,375.258240 
M397.749908,138.219421 
	C398.509979,136.608871 400.059814,134.893082 399.862152,133.410187 
	C399.476593,130.517273 398.897095,126.430832 396.952759,125.279785 
	C394.625732,123.902176 389.881165,123.912247 387.860748,125.481125 
	C385.893127,127.009010 385.206421,131.334717 385.456085,134.306076 
	C385.850128,138.995361 390.713531,140.537598 397.749908,138.219421 
M270.252838,387.180664 
	C269.675598,388.128265 269.098389,389.075897 268.521149,390.023499 
	C269.313232,390.436737 270.106232,391.210480 270.897278,391.208496 
	C280.679474,391.184052 290.463409,391.119080 300.240906,390.847687 
	C301.484375,390.813202 302.693695,389.546967 303.918823,388.851379 
	C302.727203,388.285034 301.554077,387.281525 300.340668,387.230194 
	C295.762756,387.036499 291.171692,387.152405 286.075256,387.152405 
	C286.075256,383.346558 286.274170,380.214264 285.980865,377.128815 
	C285.857361,375.829468 284.694763,374.628876 284.004517,373.383392 
	C283.376923,374.688446 282.265472,375.969391 282.199097,377.302368 
	C281.709381,387.138000 281.774933,387.141266 272.081696,387.151672 
	C271.749786,387.152008 271.417908,387.154022 270.252838,387.180664 
M299.640656,362.012238 
	C298.253754,361.682037 296.871124,361.089447 295.479187,361.066681 
	C289.180542,360.963531 282.875153,360.899963 276.582062,361.113312 
	C275.148682,361.161926 273.754517,362.368835 272.342285,363.042572 
	C273.701355,363.597809 275.048615,364.595917 276.421539,364.632629 
	C282.808014,364.803528 289.201569,364.708344 296.356812,364.708344 
	C295.876617,370.325378 295.366486,375.053589 295.153931,379.795135 
	C295.110046,380.774353 296.174072,381.803192 296.727448,382.809174 
	C297.478516,381.950439 298.808838,381.140656 298.886230,380.224915 
	C299.373352,374.462799 299.581970,368.677155 299.640656,362.012238 
M533.687561,373.279327 
	C533.023682,373.279327 532.302856,373.110199 531.706543,373.310913 
	C529.881897,373.925018 528.105103,374.681335 526.309692,375.382355 
	C528.048096,376.141876 529.770813,377.512756 531.527466,377.557770 
	C540.318115,377.782715 549.119995,377.759521 557.911560,377.553558 
	C559.246887,377.522247 560.549072,376.075378 561.866577,375.283295 
	C560.592529,374.615662 559.331177,373.399994 558.042358,373.370148 
	C550.245911,373.189545 542.443237,373.279938 533.687561,373.279327 
M498.493988,360.017120 
	C496.335663,360.019989 494.146454,359.811493 492.032745,360.119934 
	C491.058472,360.262115 490.231842,361.415588 489.338287,362.110535 
	C490.222382,362.642883 491.084717,363.586304 491.994446,363.634460 
	C495.430359,363.816437 498.881683,363.707581 503.638245,363.707581 
	C501.681274,366.986786 500.719482,369.785126 498.798492,371.523438 
	C496.275665,373.806427 492.950989,375.185303 490.074066,377.107056 
	C489.291138,377.630035 488.878235,378.707001 488.295532,379.529724 
	C489.081665,379.960510 489.936737,380.855408 490.643341,380.750549 
	C498.011047,379.656708 509.157440,369.043213 506.148163,360.017181 
	C504.027954,360.017181 501.737183,360.017181 498.493988,360.017120 
M504.194672,390.865112 
	C504.959167,390.055237 505.723633,389.245392 506.495575,388.427643 
	C513.446899,395.873840 518.740417,397.545502 520.612915,392.775635 
	C514.759277,390.710571 508.824554,388.644714 508.351318,380.943024 
	C508.320618,380.443909 507.076813,379.543427 506.588684,379.656403 
	C505.794525,379.840240 504.586456,380.668488 504.543945,381.292297 
	C504.102692,387.770447 499.543182,390.165955 494.345978,392.127167 
	C493.492798,392.449127 492.940582,393.568604 492.249268,394.319519 
	C493.312286,394.793976 494.646301,395.930298 495.390320,395.625641 
	C498.261993,394.449860 500.945221,392.813873 504.194672,390.865112 
M625.795288,391.317749 
	C625.214050,389.955322 624.674500,388.573090 624.039490,387.236176 
	C623.437683,385.969269 622.735840,384.749878 622.078064,383.509552 
	C621.442139,384.851959 620.658569,386.148590 620.223083,387.553162 
	C619.941528,388.461334 620.271118,389.539856 620.151123,390.520569 
	C619.686707,394.315399 621.066833,395.943542 625.121460,395.766632 
	C631.413269,395.492096 637.730225,395.814697 644.025757,395.586761 
	C645.262207,395.542023 646.449829,394.147858 647.659973,393.376099 
	C646.490967,392.723328 645.340271,391.548126 644.149841,391.506317 
	C638.350708,391.302826 632.540894,391.402313 625.795288,391.317749 
M320.537079,374.068420 
	C320.286316,375.007812 320.035553,375.947235 319.784790,376.886627 
	C320.966370,376.952179 322.537384,377.535004 323.259979,376.990906 
	C325.939697,374.973206 328.339905,372.584198 330.472260,370.669495 
	C333.583160,373.184631 336.585388,375.611877 339.587585,378.039124 
	C340.193939,377.593414 340.800262,377.147705 341.406586,376.702026 
	C340.757477,375.464355 340.425110,373.745209 339.403839,373.073395 
	C335.245514,370.338043 332.477417,367.033325 332.540985,361.723419 
	C332.554321,360.607941 331.252045,359.476715 330.556000,358.352753 
	C329.823395,359.438995 328.461151,360.526764 328.463776,361.611206 
	C328.477234,367.218445 325.942749,371.103729 320.537079,374.068420 
M197.022995,395.650421 
	C204.020126,395.670837 211.018677,395.768768 218.013031,395.638702 
	C219.240799,395.615906 220.450790,394.637268 221.668991,394.100037 
	C220.414474,393.434875 219.178268,392.239227 217.902298,392.195160 
	C211.973236,391.990356 206.033157,392.104523 199.914795,392.104523 
	C199.777420,388.974792 199.873169,386.625092 199.465958,384.366119 
	C199.325745,383.588440 198.004990,382.742920 197.077286,382.509277 
	C196.631073,382.396912 195.282440,383.655121 195.304718,384.256989 
	C195.442703,387.983490 195.854294,391.699890 197.022995,395.650421 
M388.617157,392.278137 
	C382.495972,392.222961 376.374268,392.100220 370.253845,392.145844 
	C367.807739,392.164093 366.749237,391.391266 366.557159,388.770569 
	C366.423950,386.953156 365.254822,385.211731 364.548492,383.436371 
	C363.812592,385.344482 362.970551,387.220978 362.387695,389.174744 
	C362.115814,390.086060 361.969269,391.397888 362.428253,392.087189 
	C363.334351,393.447998 364.654419,395.461792 365.886292,395.522552 
	C372.656677,395.856598 379.457031,395.808624 386.233917,395.548737 
	C387.288635,395.508301 388.275726,393.703766 388.617157,392.278137 
M510.816803,371.701355 
	C513.942688,371.318665 515.565308,372.435425 515.202393,375.842590 
	C515.027039,377.489380 514.950623,379.214417 515.260132,380.821075 
	C515.463257,381.875336 516.436829,382.781189 517.065308,383.753510 
	C517.724060,382.823944 518.932922,381.906647 518.953979,380.962860 
	C519.113770,373.803711 519.111328,366.637878 518.956665,359.478485 
	C518.935974,358.521515 517.777771,357.589111 517.146301,356.645325 
	C516.492615,357.639160 515.398560,358.581177 515.274353,359.637299 
	C514.991760,362.040863 515.185181,364.500397 515.185181,367.138214 
	C512.912537,367.279724 511.354553,367.116943 509.981567,367.546051 
	C508.920135,367.877747 508.090424,368.950989 507.157684,369.694519 
	C508.091339,370.361359 509.024963,371.028168 510.816803,371.701355 
M606.836426,365.288971 
	C606.826782,363.295837 607.060547,361.258179 606.707336,359.327942 
	C606.524231,358.327423 605.301697,357.517120 604.548767,356.620850 
	C604.019775,357.504883 603.044983,358.382294 603.031677,359.274048 
	C602.912537,367.244995 602.911438,375.219238 603.037598,383.189972 
	C603.051270,384.053009 604.090210,384.899811 604.653564,385.754150 
	C605.374390,384.878540 606.644470,384.045807 606.716797,383.119568 
	C606.971802,379.854065 606.816040,376.556427 606.816040,373.429016 
	C607.855713,373.053772 608.351013,372.952148 608.765076,372.711151 
	C610.025696,371.977570 611.254883,371.190155 612.496338,370.423676 
	C611.351074,369.740570 610.148315,369.135651 609.079163,368.349091 
	C608.257446,367.744568 607.603943,366.911316 606.836426,365.288971 
M591.551331,395.694580 
	C595.193665,395.694672 598.853943,395.910309 602.471191,395.609283 
	C604.458008,395.444000 606.372314,394.408051 608.319336,393.764679 
	C606.450500,393.214874 604.597656,392.266296 602.709839,392.190918 
	C597.319641,391.975586 591.915283,392.115204 586.008118,392.115204 
	C586.008118,389.128510 586.187439,386.824402 585.910889,384.576416 
	C585.814209,383.790527 584.594910,383.142670 583.888306,382.431793 
	C583.292786,383.085419 582.353394,383.648743 582.154358,384.406494 
	C579.938904,392.841827 582.102966,395.695587 591.551331,395.694580 
M447.604462,379.211517 
	C458.201630,379.455200 468.798279,379.757324 479.396790,379.857483 
	C480.528717,379.868164 481.671753,378.699768 482.809631,378.078339 
	C481.654175,377.468048 480.506470,376.345947 479.342010,376.328247 
	C469.850128,376.184113 460.353668,376.167999 450.862854,376.343811 
	C449.656555,376.366150 448.474945,377.721100 447.604462,379.211517 
M229.537766,376.136688 
	C240.473526,376.345215 251.408966,376.593323 262.345673,376.678223 
	C263.121582,376.684235 263.906830,375.490204 264.687714,374.854156 
	C263.673279,374.278595 262.665070,373.216125 261.643402,373.203033 
	C251.825607,373.076721 242.004440,373.061798 232.187759,373.225952 
	C231.174530,373.242859 230.184189,374.628967 229.537766,376.136688 
M477.749512,395.510223 
	C480.335632,392.429504 478.191315,392.039825 475.699677,392.022308 
	C469.271362,391.977264 462.842529,392.007233 455.796417,392.007233 
	C455.796417,389.567963 456.007111,387.752319 455.710815,386.023560 
	C455.554016,385.108612 454.515442,384.344788 453.874969,383.512787 
	C453.241791,384.274780 452.118164,385.002716 452.062408,385.804840 
	C451.847992,388.890259 451.975464,391.999390 451.975464,395.651184 
	C460.696991,395.651184 468.793243,395.651184 477.749512,395.510223 
M365.617737,377.179199 
	C364.623199,377.179230 363.569031,376.967529 362.647552,377.226990 
	C361.116547,377.658081 359.670776,378.391815 358.189117,378.998138 
	C359.633392,379.641388 361.067749,380.814240 362.523560,380.841492 
	C371.636902,381.012207 380.756073,380.993195 389.870270,380.845612 
	C391.041473,380.826691 392.194794,379.700562 393.356384,379.087280 
	C392.222473,378.451935 391.099579,377.290161 389.952881,377.266174 
	C382.165771,377.103241 374.373688,377.180176 365.617737,377.179199 
M644.308716,379.946503 
	C645.138672,379.946503 646.023193,380.132294 646.787109,379.907715 
	C648.346069,379.449310 649.839966,378.769897 651.360657,378.181519 
	C649.897827,377.536041 648.444946,376.359650 646.970459,376.331909 
	C637.844360,376.160278 628.712463,376.182556 619.585449,376.327545 
	C618.414978,376.346130 617.261780,377.448669 616.100586,378.049072 
	C617.217224,378.680237 618.323425,379.835693 619.452271,379.858337 
	C627.416504,380.018158 635.385315,379.945129 644.308716,379.946503 
M219.720139,384.807678 
	C219.720139,380.899963 219.720139,376.992249 219.720139,374.043304 
	C222.598801,372.578125 224.296722,371.713898 225.994629,370.849701 
	C225.799469,370.392639 225.604324,369.935577 225.409164,369.478516 
	C223.700439,369.146179 221.991730,368.813843 219.946442,368.416077 
	C219.946442,365.525574 220.157883,362.864990 219.846558,360.267029 
	C219.714600,359.165985 218.484955,358.196503 217.754211,357.167206 
	C217.187256,358.194397 216.148514,359.212677 216.128891,360.250183 
	C215.987473,367.724762 216.058411,375.203247 216.048523,382.680511 
	C216.045685,384.819458 216.452347,386.446503 219.720139,384.807678 
z"/>
<path fill="#5B96FF" opacity="1.000000" stroke="none" 
	d="
M160.757111,301.354858 
	C177.296585,299.381287 190.536667,293.316559 196.069290,276.638031 
	C199.079575,267.563293 199.151199,258.195740 196.553360,249.061157 
	C192.772446,235.766678 182.485947,229.151642 170.042206,225.814957 
	C158.165283,222.630264 145.954056,220.706726 134.035538,217.658905 
	C120.828865,214.281662 109.090271,208.334854 101.618637,196.113068 
	C87.294960,172.682983 98.506752,140.259659 124.582870,132.044693 
	C146.816788,125.040184 168.973663,125.189896 189.521378,138.159332 
	C193.413193,140.615799 196.903702,143.882355 200.094894,147.236115 
	C205.715668,153.143250 205.481491,153.666382 198.944412,157.189133 
	C191.288818,151.770035 184.692596,145.063248 176.692719,141.837051 
	C156.316330,133.619675 135.761810,133.327179 116.702820,146.329254 
	C114.058388,148.133286 111.852707,150.951477 110.173325,153.739532 
	C98.384117,173.311676 107.302780,198.999191 128.909760,206.318726 
	C138.625946,209.610153 148.922577,211.232697 159.002518,213.394806 
	C172.140274,216.212830 185.019745,219.647079 195.212784,229.076065 
	C206.666229,239.670975 208.839005,253.404297 207.479736,268.047882 
	C205.147217,293.176453 186.959671,306.798798 164.295792,309.784821 
	C147.789459,311.959503 131.697098,310.892761 116.624245,303.064941 
	C106.705849,297.914001 98.968338,290.220673 91.678017,281.187592 
	C94.095451,279.245209 96.232338,277.528259 98.304985,275.862915 
	C102.519287,279.908844 106.419617,283.718597 110.390694,287.453094 
	C120.613831,297.067078 132.980545,301.214569 146.795624,301.499786 
	C151.290237,301.592590 155.790161,301.429291 160.757111,301.354858 
z"/>
<path fill="#5995FF" opacity="1.000000" stroke="none" 
	d="
M683.845215,209.770050 
	C700.820618,184.613052 717.600830,159.759613 734.388367,134.911102 
	C736.654663,131.556610 744.841492,129.124146 747.991699,131.307602 
	C749.074097,132.057846 749.391357,134.467300 749.401733,136.122864 
	C749.501892,152.122070 749.462097,168.122147 749.462219,184.121979 
	C749.462402,207.621735 749.569092,231.122391 749.367126,254.620407 
	C749.329346,259.013458 750.563660,260.462311 754.995056,260.260529 
	C762.440796,259.921478 769.913147,260.167725 777.688171,260.167725 
	C777.688171,263.113617 777.688171,265.526703 777.688171,268.630859 
	C769.988037,268.630859 762.360718,268.837921 754.752319,268.548584 
	C750.585999,268.390137 749.282471,269.771881 749.377686,273.926514 
	C749.629028,284.891876 749.462708,295.866791 749.462708,307.268524 
	C746.446106,307.268524 743.896851,307.268524 740.537781,307.268524 
	C740.537781,301.833527 740.537842,296.393616 740.537781,290.953705 
	C740.537659,285.287109 740.310547,279.608337 740.612976,273.957947 
	C740.833740,269.832458 739.472290,268.519318 735.279541,268.545990 
	C708.947571,268.713593 682.614014,268.630585 656.280945,268.630463 
	C654.476318,268.630463 652.671692,268.630463 650.665771,268.630463 
	C649.639771,263.678192 649.971985,259.688934 652.816406,255.592209 
	C663.267456,240.539581 673.399902,225.265747 683.845215,209.770050 
M731.457092,260.173157 
	C734.397095,260.173157 737.337036,260.173157 740.456726,260.173157 
	C740.456726,220.207825 740.456726,180.919968 740.456726,140.104523 
	C713.026245,180.652145 686.433411,219.961548 659.230042,260.173462 
	C683.877075,260.173462 707.173889,260.173462 731.457092,260.173157 
z"/>
<path fill="#5995FF" opacity="1.000000" stroke="none" 
	d="
M264.748840,186.747467 
	C286.975311,167.298706 323.918884,173.577286 334.842163,198.877716 
	C337.864166,205.877213 339.497345,213.981903 339.653015,221.622604 
	C340.216400,249.272690 339.882202,276.941101 339.871979,304.602600 
	C339.871674,305.406311 339.705475,306.209930 339.579254,307.351624 
	C336.857635,307.351624 334.291901,307.351624 330.987061,307.351624 
	C330.987061,305.506592 330.987030,303.748169 330.987030,301.989777 
	C330.987030,277.994232 331.055908,253.998337 330.934967,230.003403 
	C330.907318,224.520599 330.626617,218.977783 329.774109,213.571091 
	C326.148041,190.572983 309.707825,182.517426 289.466888,184.306412 
	C283.790863,184.808075 277.928833,186.489212 272.774963,188.939453 
	C261.595062,194.254532 255.825806,203.420624 255.862427,216.090607 
	C255.944794,244.585068 255.888123,273.079956 255.888062,301.574646 
	C255.888062,303.374817 255.888077,305.174957 255.888077,307.341736 
	C252.722061,307.341736 249.998123,307.341736 246.902878,307.341736 
	C246.902878,245.254303 246.902878,183.343384 246.902878,120.973312 
	C249.736664,120.973312 252.582611,120.973312 255.787827,120.973312 
	C255.787827,146.559937 255.787827,171.831833 255.787827,197.790955 
	C259.006744,193.801208 261.750854,190.399994 264.748840,186.747467 
z"/>
<path fill="#5D97FF" opacity="1.000000" stroke="none" 
	d="
M537.728699,227.000031 
	C537.728699,249.483398 537.838623,271.467773 537.636902,293.449280 
	C537.596252,297.872192 538.576599,299.660309 543.373230,299.385773 
	C550.639282,298.969879 557.946777,299.277130 565.563354,299.277130 
	C565.563354,302.207886 565.563354,304.605988 565.563354,307.439514 
	C555.695801,307.439514 545.921021,307.727783 536.177856,307.297974 
	C532.267029,307.125427 529.625366,304.139740 529.014404,300.034698 
	C528.673218,297.742065 528.533997,295.399475 528.531921,293.079193 
	C528.502380,259.771088 528.387024,226.462021 528.640747,193.155823 
	C528.680664,187.919876 527.109802,186.489136 522.147339,186.880402 
	C516.862793,187.297058 511.519958,186.974152 506.311523,186.974152 
	C503.869446,179.565979 504.600555,178.513794 511.873779,178.506912 
	C514.538452,178.504379 517.203064,178.508636 519.867737,178.505859 
	C528.489075,178.496902 529.085999,177.887482 529.097717,169.000916 
	C529.106995,162.006226 529.099915,155.011490 529.100098,148.016785 
	C529.100159,146.384598 529.100098,144.752426 529.100098,143.234283 
	C537.322449,141.425644 537.726013,141.721283 537.728699,149.136948 
	C537.730896,155.132416 537.729126,161.127869 537.729126,167.123337 
	C537.729126,178.506516 537.729126,178.506516 549.374146,178.506516 
	C555.334229,178.506516 561.294373,178.506516 567.572510,178.506516 
	C567.572510,181.432724 567.572510,183.830811 567.572510,186.792908 
	C557.850586,186.792908 548.273560,186.792908 537.728943,186.792908 
	C537.728943,200.383026 537.728943,213.441528 537.728699,227.000031 
z"/>
<path fill="#5693FF" opacity="1.000000" stroke="none" 
	d="
M452.995483,200.010956 
	C452.995483,195.549423 452.995483,191.585953 452.995483,187.090958 
	C445.270813,187.090958 438.020172,187.090958 430.391663,187.090958 
	C430.391663,184.519974 430.391663,182.486649 430.391663,179.861237 
	C436.287506,179.861237 442.079559,179.673813 447.852356,179.926285 
	C451.784271,180.098251 453.117218,178.684982 453.064056,174.748825 
	C452.883942,161.418488 452.941864,148.083893 453.013947,134.751495 
	C453.072540,123.912735 456.223083,120.854591 467.013458,120.852623 
	C474.670563,120.851219 482.327637,120.852348 490.427734,120.852348 
	C490.427734,123.338211 490.427734,125.542915 490.427734,128.419113 
	C481.133759,128.419113 471.885559,128.419113 462.329834,128.419113 
	C462.329834,145.485367 462.329834,161.887451 462.329834,178.895248 
	C471.748657,178.895248 480.988525,178.895248 490.542450,178.895248 
	C490.542450,181.733200 490.542450,183.970642 490.542450,186.809570 
	C481.187592,186.809570 471.944153,186.809570 462.106995,186.809570 
	C462.106995,227.289551 462.106995,267.178253 462.106995,307.376770 
	C458.915527,307.376770 456.331696,307.376770 452.995483,307.376770 
	C452.995483,271.677582 452.995483,236.093307 452.995483,200.010956 
z"/>
<path fill="#5995FF" opacity="1.000000" stroke="none" 
	d="
M388.112061,220.000000 
	C388.112061,208.186386 388.111176,196.872772 388.112183,185.559158 
	C388.112854,177.848236 388.440216,177.596695 396.736816,179.173615 
	C396.736816,221.782272 396.736816,264.443451 396.736816,307.408081 
	C393.899933,307.408081 391.332611,307.408081 388.111969,307.408081 
	C388.111969,278.274597 388.111969,249.387299 388.112061,220.000000 
z"/>
<path fill="#9AA3AD" opacity="1.000000" stroke="none" 
	d="
M427.680359,382.099609 
	C427.180084,386.222992 428.661194,387.778625 432.425629,387.462128 
	C435.234802,387.225952 438.101746,387.240936 440.899078,387.546326 
	C441.827179,387.647614 442.618683,389.000244 443.472656,389.780792 
	C442.636200,390.409485 441.806488,391.574524 440.962280,391.585144 
	C430.809814,391.713074 420.654694,391.712799 410.502106,391.591766 
	C409.679016,391.581970 408.869385,390.440063 408.053497,389.824219 
	C408.863525,389.029541 409.617371,387.630280 410.493622,387.548920 
	C413.630493,387.257568 416.811340,387.328949 419.970825,387.422577 
	C423.119171,387.515808 423.356415,385.559753 423.352478,383.173004 
	C423.348663,380.840759 423.310852,378.752991 420.067322,378.896637 
	C417.609802,379.005463 415.143555,378.918182 412.322632,378.918182 
	C412.322632,372.517792 412.322632,366.651093 412.322632,360.458160 
	C421.094757,360.458160 429.654602,360.458160 438.923462,360.458160 
	C438.923462,365.919067 439.139557,371.195770 438.723175,376.422119 
	C438.648712,377.356720 436.025757,378.261566 434.457825,378.862701 
	C432.180298,379.735779 428.465149,377.011383 427.680359,382.099609 
M417.849335,375.856689 
	C422.321289,375.876770 426.799164,375.763947 431.263153,375.962799 
	C434.343323,376.099945 435.471741,374.855042 435.208954,371.890472 
	C435.063263,370.246613 435.600952,368.416016 435.044739,366.972412 
	C434.551300,365.691864 433.040497,364.027374 431.859924,363.926727 
	C427.584351,363.562103 423.253387,363.669434 418.955872,363.868896 
	C417.921082,363.916901 416.062958,365.015167 416.070190,365.612488 
	C416.110687,368.960876 416.606537,372.303711 417.849335,375.856689 
z"/>
<path fill="#99A2AD" opacity="1.000000" stroke="none" 
	d="
M340.957947,395.889984 
	C336.476288,395.889435 332.476044,396.035461 328.496735,395.810760 
	C327.062866,395.729797 325.679260,394.758057 324.272705,394.192810 
	C325.669525,393.492554 327.065155,392.789886 328.464142,392.093964 
	C328.756104,391.948761 329.060516,391.828552 329.653625,391.566956 
	C329.653625,389.437317 329.653625,387.178955 329.653625,384.601654 
	C328.869751,384.443878 327.998871,384.465942 327.357300,384.093231 
	C326.389465,383.531036 325.581787,382.693207 324.706055,381.972504 
	C325.625000,381.459503 326.510529,380.594513 327.469513,380.503601 
	C329.777649,380.284760 332.120148,380.426605 334.448792,380.426331 
	C346.340515,380.424927 346.340393,380.425293 346.340637,368.300110 
	C346.340668,365.638794 346.104156,362.946777 346.442139,360.329010 
	C346.613098,359.004791 347.823578,357.814728 348.564026,356.563995 
	C349.317444,357.813477 350.620636,359.020691 350.720551,360.320404 
	C351.012878,364.123657 350.825958,367.963715 350.826324,371.789368 
	C350.826691,375.589630 350.826416,379.389862 350.826416,383.450531 
	C349.259705,383.880798 347.884857,384.258392 346.179382,384.726776 
	C346.179382,386.927490 346.179382,389.156494 346.179382,391.614319 
	C346.839020,391.806519 347.503998,391.877838 348.036102,392.181763 
	C349.033173,392.751282 349.953369,393.455414 350.905518,394.103577 
	C349.915192,394.697083 348.973083,395.671387 347.924408,395.804199 
	C345.796021,396.073761 343.609924,395.888092 340.957947,395.889984 
M333.817596,386.717926 
	C334.599792,388.537415 334.932648,391.196930 336.297546,391.927002 
	C337.525391,392.583740 340.906921,391.634796 341.490387,390.469055 
	C342.236908,388.977509 341.130951,386.558777 340.823273,384.539642 
	C338.511780,384.970215 336.200317,385.400787 333.817596,386.717926 
z"/>
<path fill="#9EA7B1" opacity="1.000000" stroke="none" 
	d="
M537.135193,395.919830 
	C535.020813,395.919739 533.386475,395.919739 531.344971,395.919739 
	C531.344971,392.576752 531.344971,389.698303 531.344971,385.880676 
	C538.498413,385.880676 545.585938,385.880676 552.673523,385.880676 
	C552.701538,385.319397 552.729553,384.758148 552.757568,384.196869 
	C551.272522,384.021271 549.789307,383.714355 548.302185,383.694031 
	C543.303772,383.625824 538.299133,383.772125 533.308838,383.558289 
	C532.328918,383.516296 531.402161,382.233124 530.450928,381.522339 
	C531.233582,380.821960 532.004700,379.528961 532.800842,379.513367 
	C540.295166,379.366455 547.808167,379.221283 555.272949,379.718567 
	C556.209473,379.780945 557.449951,383.550385 557.501282,385.628113 
	C557.533813,386.942932 555.724121,389.350037 554.564209,389.463531 
	C549.941833,389.915863 545.250061,389.635925 540.584473,389.679810 
	C538.847046,389.696167 537.110962,389.856903 535.374329,389.951813 
	C535.312317,390.429535 535.250244,390.907257 535.188232,391.384979 
	C536.241943,391.675201 537.291565,392.197937 538.349976,392.216187 
	C543.514404,392.305298 548.688416,392.106598 553.842834,392.350983 
	C555.484802,392.428833 557.076843,393.557587 558.691772,394.205505 
	C556.998840,394.776947 555.322998,395.771912 553.609802,395.841125 
	C548.285889,396.056122 542.947815,395.919861 537.135193,395.919830 
z"/>
<path fill="#9BA3AE" opacity="1.000000" stroke="none" 
	d="
M248.010712,389.634094 
	C244.156647,389.633636 240.792847,389.633636 237.429062,389.633636 
	C237.373093,390.267670 237.317123,390.901672 237.261154,391.535706 
	C238.490524,391.786560 239.716980,392.236084 240.949753,392.254059 
	C246.447632,392.334290 251.950958,392.186768 257.443481,392.376587 
	C258.609528,392.416901 259.738678,393.525116 260.884827,394.141296 
	C259.720276,394.726807 258.567047,395.790985 257.389313,395.818817 
	C250.560974,395.980286 243.721313,395.732269 236.896896,395.962189 
	C233.031372,396.092407 233.047668,393.867401 233.147842,391.173248 
	C233.251129,388.394714 232.471863,385.221710 237.072662,385.374664 
	C241.733322,385.529602 246.403610,385.439606 251.068878,385.385742 
	C252.603088,385.368042 254.134735,385.128143 255.667572,384.989868 
	C255.696350,384.471741 255.725128,383.953613 255.753906,383.435516 
	C254.333817,383.217346 252.916275,382.832489 251.493210,382.810883 
	C246.328613,382.732422 241.159943,382.851501 235.998459,382.701538 
	C235.096680,382.675354 234.222137,381.710724 233.334991,381.179535 
	C234.099442,380.526794 234.854172,379.320404 235.629852,379.306793 
	C243.577103,379.167267 251.527740,379.221313 259.150421,379.221313 
	C259.614349,380.145294 259.857422,380.424011 259.890839,380.725922 
	C260.876770,389.634308 260.873444,389.634705 252.000412,389.634918 
	C250.833939,389.634949 249.667480,389.634705 248.010712,389.634094 
z"/>
<path fill="#99A2AD" opacity="1.000000" stroke="none" 
	d="
M657.814453,360.863586 
	C662.974609,360.501892 667.793091,360.301666 672.603149,360.426025 
	C673.582458,360.451324 674.530212,361.697998 675.492493,362.381592 
	C674.591370,363.125092 673.789124,364.100739 672.758362,364.539734 
	C671.911499,364.900452 670.793152,364.625305 669.795105,364.629181 
	C660.949097,364.663605 660.949158,364.663452 660.949097,373.739227 
	C660.949036,376.553284 660.949036,379.367340 660.949036,382.702667 
	C664.803650,382.702667 668.355530,382.755310 671.904541,382.677612 
	C673.388245,382.645111 674.876160,382.148315 676.342285,382.227783 
	C677.134460,382.270782 677.884949,383.083496 678.654236,383.548950 
	C677.979797,384.291687 677.361450,385.614319 676.622009,385.685913 
	C670.392639,386.288727 664.141052,386.662659 657.469849,387.135651 
	C657.469849,377.902557 657.469849,369.521118 657.814453,360.863586 
z"/>
<path fill="#9EA7B1" opacity="1.000000" stroke="none" 
	d="
M634.019653,369.183350 
	C637.843384,369.191376 641.184021,369.077362 644.503418,369.291992 
	C645.341309,369.346161 646.111328,370.450531 646.912537,371.072296 
	C646.106140,371.684418 645.310059,372.811707 644.491821,372.828033 
	C637.329041,372.970825 630.158081,373.033783 623.001648,372.780579 
	C622.017456,372.745697 620.463440,370.949738 620.279480,369.793213 
	C619.865906,367.192413 620.234802,364.477386 620.119507,361.816010 
	C620.010864,359.309845 620.906006,358.193207 623.565186,358.240845 
	C630.228760,358.360321 636.898499,358.187378 643.559082,358.372467 
	C644.660095,358.403076 645.727295,359.650421 646.810120,360.335449 
	C645.748779,360.867645 644.697632,361.835388 643.624512,361.860321 
	C637.334351,362.006317 631.039124,361.932007 624.412476,361.932007 
	C624.412476,364.376373 624.412476,366.301758 624.412476,369.183105 
	C627.388855,369.183105 630.458740,369.183105 634.019653,369.183350 
z"/>
<path fill="#9DA5B0" opacity="1.000000" stroke="none" 
	d="
M462.102509,369.191986 
	C467.075012,369.194458 471.565430,369.109344 476.046814,369.272675 
	C476.942169,369.305359 477.802979,370.286255 478.679749,370.829926 
	C477.783539,371.525116 476.899384,372.804932 475.989258,372.823730 
	C468.219696,372.984039 460.445435,372.915558 453.005432,372.915558 
	C452.495361,372.122986 452.193268,371.865540 452.167328,371.582794 
	C450.947784,358.286804 450.950531,358.286469 464.022125,358.286591 
	C467.512207,358.286621 471.016083,358.109314 474.485352,358.378296 
	C475.808929,358.480957 477.053162,359.607269 478.333557,360.267090 
	C477.114899,360.821259 475.915527,361.796356 474.674042,361.853333 
	C470.362030,362.051117 466.031281,361.817017 461.715942,361.974335 
	C459.227173,362.065033 455.814087,360.583466 455.775696,365.511414 
	C455.737701,370.391113 459.075500,368.938538 462.102509,369.191986 
z"/>
<path fill="#9AA3AD" opacity="1.000000" stroke="none" 
	d="
M370.009583,358.713501 
	C375.134918,358.937805 380.022919,358.706268 384.530029,359.905762 
	C386.630310,360.464691 389.093933,363.667694 389.358185,365.911774 
	C389.590576,367.885803 387.493469,371.087097 385.544342,372.190704 
	C379.066284,375.858459 372.037781,375.575134 365.586792,372.129395 
	C363.759186,371.153198 362.213898,367.884277 362.197937,365.654968 
	C362.166534,361.276733 365.979797,359.887939 370.009583,358.713501 
M366.117340,367.179993 
	C369.654572,371.205505 377.024689,372.481750 382.510284,369.723053 
	C383.809814,369.069519 385.421051,367.410431 385.408905,366.229095 
	C385.396637,365.036865 383.625305,362.943115 382.485443,362.843903 
	C377.939453,362.448273 373.320465,362.455963 368.773468,362.842590 
	C367.755219,362.929138 366.918671,365.152161 366.117340,367.179993 
z"/>
<path fill="#99A2AD" opacity="1.000000" stroke="none" 
	d="
M251.900421,358.140198 
	C254.047043,358.146698 255.748245,357.950470 257.362488,358.239563 
	C258.252075,358.398895 258.995636,359.373657 259.805054,359.980835 
	C258.980499,360.574921 258.171631,361.656219 257.328827,361.683350 
	C252.172531,361.849457 247.008591,361.782135 241.847198,361.780670 
	C239.785919,361.780090 237.313461,361.702332 238.051208,364.681610 
	C238.315033,365.747009 240.501419,366.967529 241.855316,367.023254 
	C247.956711,367.274353 254.074295,367.132843 260.186035,367.132843 
	C260.382385,367.624878 260.578705,368.116913 260.775055,368.608948 
	C259.725433,369.326874 258.689850,370.641907 257.623932,370.666962 
	C249.999069,370.846161 242.368027,370.762665 234.349731,370.762665 
	C234.349731,366.448120 234.349731,362.597015 234.349731,358.140045 
	C240.189026,358.140045 245.803864,358.140045 251.900421,358.140198 
z"/>
<path fill="#98A1AB" opacity="1.000000" stroke="none" 
	d="
M209.643829,364.405212 
	C209.642807,368.356506 209.964355,371.899475 209.472549,375.325684 
	C209.282425,376.650177 207.253174,377.715057 206.043671,378.879395 
	C205.956924,378.962952 205.720825,378.885345 205.554688,378.893311 
	C190.222839,379.628174 189.093552,378.195526 191.597168,360.292267 
	C196.725571,360.292267 201.995102,360.125641 207.233231,360.456390 
	C208.106094,360.511475 208.842270,362.730957 209.643829,364.405212 
M194.924362,368.578033 
	C195.519806,371.574738 192.734909,376.306335 199.408279,376.015747 
	C206.002563,375.728577 205.988358,376.050446 205.885300,368.390656 
	C205.853073,365.995392 206.075928,363.261322 202.516800,363.969513 
	C199.764511,364.517181 194.885468,361.223724 194.924362,368.578033 
z"/>
<path fill="#99A2AD" opacity="1.000000" stroke="none" 
	d="
M681.349854,359.701294 
	C682.270752,358.405151 683.184387,357.528229 684.098083,356.651337 
	C684.672058,357.720001 685.681641,358.765106 685.740906,359.861603 
	C685.945923,363.651764 685.819885,367.459839 685.819885,370.653687 
	C688.206604,372.004822 690.012329,373.027008 691.817993,374.049194 
	C690.113647,374.977905 688.409302,375.906586 685.825989,377.314240 
	C685.825989,381.746063 685.967834,387.022491 685.734131,392.282196 
	C685.669312,393.742401 684.490479,395.153076 683.822693,396.586487 
	C682.995667,395.077820 681.481995,393.582642 681.452148,392.058350 
	C681.243652,381.415771 681.342285,370.767151 681.349854,359.701294 
z"/>
<path fill="#9BA3AE" opacity="1.000000" stroke="none" 
	d="
M556.504700,368.396240 
	C549.414734,373.317566 541.999756,372.516174 534.812073,370.189453 
	C532.877930,369.563385 530.735657,366.352875 530.649475,364.248505 
	C530.578430,362.510254 533.053040,359.807098 535.004395,359.007294 
	C541.005554,356.547455 547.344360,356.653351 553.421570,359.003540 
	C557.904480,360.737183 558.694275,363.350922 556.504700,368.396240 
M536.536560,367.250397 
	C541.262268,367.388794 545.998108,367.737091 550.706299,367.510681 
	C551.813904,367.457367 552.828247,365.464996 553.885498,364.364685 
	C552.864014,363.404388 551.909790,361.714386 550.809204,361.613007 
	C546.572754,361.222717 542.238831,360.919403 538.042419,361.424500 
	C535.450867,361.736481 533.511475,363.755951 536.536560,367.250397 
z"/>
<path fill="#9AA3AD" opacity="1.000000" stroke="none" 
	d="
M577.949829,374.785248 
	C577.949036,369.864349 577.949036,365.416412 577.949036,360.595886 
	C583.964539,360.595886 589.510620,360.595886 595.901489,360.595886 
	C595.901489,366.003052 596.007141,371.395050 595.779053,376.772888 
	C595.747559,377.514984 594.093018,378.743439 593.138428,378.795166 
	C589.004944,379.019043 584.829102,379.125610 580.722961,378.722717 
	C579.695374,378.621887 578.869324,376.468353 577.949829,374.785248 
M592.058960,369.516968 
	C591.963989,367.768585 591.869019,366.020233 591.730286,363.466705 
	C588.141968,364.009399 583.611389,363.475708 582.543457,365.150269 
	C581.052124,367.488770 580.972473,372.290222 582.505310,374.500427 
	C583.732910,376.270508 588.263184,375.750031 591.775391,376.318542 
	C591.903625,373.664124 591.981445,372.054657 592.058960,369.516968 
z"/>
<path fill="#5B96FF" opacity="1.000000" stroke="none" 
	d="
M397.427521,138.438995 
	C390.713531,140.537598 385.850128,138.995361 385.456085,134.306076 
	C385.206421,131.334717 385.893127,127.009010 387.860748,125.481125 
	C389.881165,123.912247 394.625732,123.902176 396.952759,125.279785 
	C398.897095,126.430832 399.476593,130.517273 399.862152,133.410187 
	C400.059814,134.893082 398.509979,136.608871 397.427521,138.438995 
z"/>
<path fill="#A2AAB4" opacity="1.000000" stroke="none" 
	d="
M270.669434,387.167969 
	C271.417908,387.154022 271.749786,387.152008 272.081696,387.151672 
	C281.774933,387.141266 281.709381,387.138000 282.199097,377.302368 
	C282.265472,375.969391 283.376923,374.688446 284.004517,373.383392 
	C284.694763,374.628876 285.857361,375.829468 285.980865,377.128815 
	C286.274170,380.214264 286.075256,383.346558 286.075256,387.152405 
	C291.171692,387.152405 295.762756,387.036499 300.340668,387.230194 
	C301.554077,387.281525 302.727203,388.285034 303.918823,388.851379 
	C302.693695,389.546967 301.484375,390.813202 300.240906,390.847687 
	C290.463409,391.119080 280.679474,391.184052 270.897278,391.208496 
	C270.106232,391.210480 269.313232,390.436737 268.521149,390.023499 
	C269.098389,389.075897 269.675598,388.128265 270.669434,387.167969 
z"/>
<path fill="#99A2AD" opacity="1.000000" stroke="none" 
	d="
M299.761658,362.455750 
	C299.581970,368.677155 299.373352,374.462799 298.886230,380.224915 
	C298.808838,381.140656 297.478516,381.950439 296.727448,382.809174 
	C296.174072,381.803192 295.110046,380.774353 295.153931,379.795135 
	C295.366486,375.053589 295.876617,370.325378 296.356812,364.708344 
	C289.201569,364.708344 282.808014,364.803528 276.421539,364.632629 
	C275.048615,364.595917 273.701355,363.597809 272.342285,363.042572 
	C273.754517,362.368835 275.148682,361.161926 276.582062,361.113312 
	C282.875153,360.899963 289.180542,360.963531 295.479187,361.066681 
	C296.871124,361.089447 298.253754,361.682037 299.761658,362.455750 
z"/>
<path fill="#9DA5B0" opacity="1.000000" stroke="none" 
	d="
M534.165100,373.279541 
	C542.443237,373.279938 550.245911,373.189545 558.042358,373.370148 
	C559.331177,373.399994 560.592529,374.615662 561.866577,375.283264 
	C560.549072,376.075378 559.246887,377.522247 557.911560,377.553558 
	C549.119995,377.759521 540.318115,377.782715 531.527466,377.557770 
	C529.770813,377.512756 528.048096,376.141876 526.309692,375.382324 
	C528.105103,374.681335 529.881897,373.925018 531.706543,373.310913 
	C532.302856,373.110199 533.023682,373.279327 534.165100,373.279541 
z"/>
<path fill="#9AA3AD" opacity="1.000000" stroke="none" 
	d="
M498.970215,360.017151 
	C501.737183,360.017181 504.027954,360.017181 506.148163,360.017181 
	C509.157440,369.043213 498.011047,379.656708 490.643341,380.750549 
	C489.936737,380.855408 489.081665,379.960510 488.295532,379.529724 
	C488.878235,378.707001 489.291138,377.630035 490.074066,377.107056 
	C492.950989,375.185303 496.275665,373.806427 498.798492,371.523438 
	C500.719482,369.785126 501.681274,366.986786 503.638245,363.707581 
	C498.881683,363.707581 495.430359,363.816437 491.994446,363.634460 
	C491.084717,363.586304 490.222382,362.642883 489.338287,362.110535 
	C490.231842,361.415588 491.058472,360.262115 492.032745,360.119934 
	C494.146454,359.811493 496.335663,360.019989 498.970215,360.017151 
z"/>
<path fill="#99A2AD" opacity="1.000000" stroke="none" 
	d="
M503.946655,391.107239 
	C500.945221,392.813873 498.261993,394.449860 495.390320,395.625641 
	C494.646301,395.930298 493.312286,394.793976 492.249268,394.319519 
	C492.940582,393.568604 493.492798,392.449127 494.345978,392.127167 
	C499.543182,390.165955 504.102692,387.770447 504.543945,381.292297 
	C504.586456,380.668488 505.794525,379.840240 506.588684,379.656403 
	C507.076813,379.543427 508.320618,380.443909 508.351318,380.943024 
	C508.824554,388.644714 514.759277,390.710571 520.612915,392.775635 
	C518.740417,397.545502 513.446899,395.873840 506.495575,388.427643 
	C505.723633,389.245392 504.959167,390.055237 503.946655,391.107239 
z"/>
<path fill="#9AA3AD" opacity="1.000000" stroke="none" 
	d="
M626.265076,391.356171 
	C632.540894,391.402313 638.350708,391.302826 644.149841,391.506317 
	C645.340271,391.548126 646.490967,392.723328 647.659973,393.376099 
	C646.449829,394.147858 645.262207,395.542023 644.025757,395.586761 
	C637.730225,395.814697 631.413269,395.492096 625.121460,395.766632 
	C621.066833,395.943542 619.686707,394.315399 620.151123,390.520569 
	C620.271118,389.539856 619.941528,388.461334 620.223083,387.553162 
	C620.658569,386.148590 621.442139,384.851959 622.078064,383.509552 
	C622.735840,384.749878 623.437683,385.969269 624.039490,387.236176 
	C624.674500,388.573090 625.214050,389.955322 626.265076,391.356171 
z"/>
<path fill="#98A1AB" opacity="1.000000" stroke="none" 
	d="
M320.849030,373.897522 
	C325.942749,371.103729 328.477234,367.218445 328.463776,361.611206 
	C328.461151,360.526764 329.823395,359.438995 330.556000,358.352753 
	C331.252045,359.476715 332.554321,360.607941 332.540985,361.723419 
	C332.477417,367.033325 335.245514,370.338043 339.403839,373.073395 
	C340.425110,373.745209 340.757477,375.464355 341.406586,376.702026 
	C340.800262,377.147705 340.193939,377.593414 339.587585,378.039124 
	C336.585388,375.611877 333.583160,373.184631 330.472260,370.669495 
	C328.339905,372.584198 325.939697,374.973206 323.259979,376.990906 
	C322.537384,377.535004 320.966370,376.952179 319.784790,376.886627 
	C320.035553,375.947235 320.286316,375.007812 320.849030,373.897522 
z"/>
<path fill="#9CA5AF" opacity="1.000000" stroke="none" 
	d="
M196.598999,395.535034 
	C195.854294,391.699890 195.442703,387.983490 195.304718,384.256989 
	C195.282440,383.655121 196.631073,382.396912 197.077286,382.509277 
	C198.004990,382.742920 199.325745,383.588440 199.465958,384.366119 
	C199.873169,386.625092 199.777420,388.974792 199.914795,392.104523 
	C206.033157,392.104523 211.973236,391.990356 217.902298,392.195160 
	C219.178268,392.239227 220.414474,393.434875 221.669006,394.100037 
	C220.450790,394.637268 219.240799,395.615906 218.013031,395.638702 
	C211.018677,395.768768 204.020126,395.670837 196.598999,395.535034 
z"/>
<path fill="#99A2AD" opacity="1.000000" stroke="none" 
	d="
M388.955627,392.496552 
	C388.275726,393.703766 387.288635,395.508301 386.233917,395.548737 
	C379.457031,395.808624 372.656677,395.856598 365.886292,395.522552 
	C364.654419,395.461792 363.334351,393.447998 362.428253,392.087189 
	C361.969269,391.397888 362.115814,390.086060 362.387695,389.174744 
	C362.970551,387.220978 363.812592,385.344482 364.548492,383.436371 
	C365.254822,385.211731 366.423950,386.953156 366.557159,388.770569 
	C366.749237,391.391266 367.807739,392.164093 370.253845,392.145844 
	C376.374268,392.100220 382.495972,392.222961 388.955627,392.496552 
z"/>
<path fill="#99A2AD" opacity="1.000000" stroke="none" 
	d="
M510.387695,371.698181 
	C509.024963,371.028168 508.091339,370.361359 507.157684,369.694519 
	C508.090424,368.950989 508.920135,367.877747 509.981567,367.546051 
	C511.354553,367.116943 512.912537,367.279724 515.185181,367.138214 
	C515.185181,364.500397 514.991760,362.040863 515.274353,359.637299 
	C515.398560,358.581177 516.492615,357.639160 517.146301,356.645325 
	C517.777771,357.589111 518.935974,358.521515 518.956665,359.478485 
	C519.111328,366.637878 519.113770,373.803711 518.953979,380.962860 
	C518.932922,381.906647 517.724060,382.823944 517.065308,383.753510 
	C516.436829,382.781189 515.463257,381.875336 515.260132,380.821075 
	C514.950623,379.214417 515.027039,377.489380 515.202393,375.842590 
	C515.565308,372.435425 513.942688,371.318665 510.387695,371.698181 
z"/>
<path fill="#99A2AD" opacity="1.000000" stroke="none" 
	d="
M606.856079,365.734375 
	C607.603943,366.911316 608.257446,367.744568 609.079163,368.349091 
	C610.148315,369.135651 611.351074,369.740570 612.496338,370.423706 
	C611.254883,371.190155 610.025696,371.977570 608.765076,372.711151 
	C608.351013,372.952148 607.855713,373.053772 606.816040,373.429016 
	C606.816040,376.556427 606.971802,379.854065 606.716797,383.119568 
	C606.644470,384.045807 605.374390,384.878540 604.653564,385.754150 
	C604.090210,384.899811 603.051270,384.053009 603.037598,383.189972 
	C602.911438,375.219238 602.912537,367.244995 603.031677,359.274048 
	C603.044983,358.382294 604.019775,357.504883 604.548767,356.620850 
	C605.301697,357.517120 606.524231,358.327423 606.707336,359.327942 
	C607.060547,361.258179 606.826782,363.295837 606.856079,365.734375 
z"/>
<path fill="#9AA3AD" opacity="1.000000" stroke="none" 
	d="
M591.062378,395.694244 
	C582.102966,395.695587 579.938904,392.841827 582.154358,384.406494 
	C582.353394,383.648743 583.292786,383.085419 583.888306,382.431793 
	C584.594910,383.142670 585.814209,383.790527 585.910889,384.576416 
	C586.187439,386.824402 586.008118,389.128510 586.008118,392.115204 
	C591.915283,392.115204 597.319641,391.975586 602.709839,392.190918 
	C604.597656,392.266296 606.450500,393.214874 608.319336,393.764679 
	C606.372314,394.408051 604.458008,395.444000 602.471191,395.609283 
	C598.853943,395.910309 595.193665,395.694672 591.062378,395.694244 
z"/>
<path fill="#A1AAB3" opacity="1.000000" stroke="none" 
	d="
M447.443176,378.835083 
	C448.474945,377.721100 449.656555,376.366150 450.862854,376.343811 
	C460.353668,376.167999 469.850128,376.184113 479.342010,376.328247 
	C480.506470,376.345947 481.654175,377.468048 482.809631,378.078339 
	C481.671753,378.699768 480.528717,379.868164 479.396790,379.857483 
	C468.798279,379.757324 458.201630,379.455200 447.443176,378.835083 
z"/>
<path fill="#9BA3AE" opacity="1.000000" stroke="none" 
	d="
M229.360489,375.758240 
	C230.184189,374.628967 231.174530,373.242859 232.187759,373.225952 
	C242.004440,373.061798 251.825607,373.076721 261.643402,373.203033 
	C262.665070,373.216125 263.673279,374.278595 264.687714,374.854156 
	C263.906830,375.490204 263.121582,376.684235 262.345673,376.678223 
	C251.408966,376.593323 240.473526,376.345215 229.360489,375.758240 
z"/>
<path fill="#99A2AD" opacity="1.000000" stroke="none" 
	d="
M477.319519,395.580688 
	C468.793243,395.651184 460.696991,395.651184 451.975464,395.651184 
	C451.975464,391.999390 451.847992,388.890259 452.062408,385.804840 
	C452.118164,385.002716 453.241791,384.274780 453.874939,383.512756 
	C454.515442,384.344788 455.554016,385.108612 455.710815,386.023560 
	C456.007111,387.752319 455.796417,389.567963 455.796417,392.007233 
	C462.842529,392.007233 469.271362,391.977264 475.699677,392.022308 
	C478.191315,392.039825 480.335632,392.429504 477.319519,395.580688 
z"/>
<path fill="#9EA7B1" opacity="1.000000" stroke="none" 
	d="
M366.100464,377.179443 
	C374.373688,377.180176 382.165771,377.103241 389.952881,377.266174 
	C391.099579,377.290161 392.222473,378.451935 393.356384,379.087280 
	C392.194794,379.700562 391.041473,380.826691 389.870270,380.845612 
	C380.756073,380.993195 371.636902,381.012207 362.523560,380.841492 
	C361.067749,380.814240 359.633392,379.641388 358.189117,378.998108 
	C359.670776,378.391815 361.116547,377.658081 362.647552,377.226990 
	C363.569031,376.967529 364.623199,377.179230 366.100464,377.179443 
z"/>
<path fill="#A1AAB3" opacity="1.000000" stroke="none" 
	d="
M643.830688,379.946472 
	C635.385315,379.945129 627.416504,380.018158 619.452271,379.858337 
	C618.323425,379.835693 617.217224,378.680237 616.100586,378.049072 
	C617.261780,377.448669 618.414978,376.346130 619.585449,376.327545 
	C628.712463,376.182556 637.844360,376.160278 646.970459,376.331909 
	C648.444946,376.359650 649.897827,377.536041 651.360657,378.181519 
	C649.839966,378.769897 648.346069,379.449310 646.787109,379.907715 
	C646.023193,380.132294 645.138672,379.946503 643.830688,379.946472 
z"/>
<path fill="#9AA3AD" opacity="1.000000" stroke="none" 
	d="
M219.456268,385.136353 
	C216.452347,386.446503 216.045685,384.819458 216.048523,382.680511 
	C216.058411,375.203247 215.987473,367.724762 216.128891,360.250183 
	C216.148514,359.212677 217.187256,358.194397 217.754211,357.167206 
	C218.484955,358.196503 219.714600,359.165985 219.846558,360.267029 
	C220.157883,362.864990 219.946442,365.525574 219.946442,368.416077 
	C221.991730,368.813843 223.700439,369.146179 225.409164,369.478516 
	C225.604324,369.935577 225.799469,370.392639 225.994629,370.849701 
	C224.296722,371.713898 222.598801,372.578125 219.720139,374.043304 
	C219.720139,376.992249 219.720139,380.899963 219.456268,385.136353 
z"/>
<path fill="#F0F3F6" opacity="1.000000" stroke="none" 
	d="
M730.963867,260.173309 
	C707.173889,260.173462 683.877075,260.173462 659.230042,260.173462 
	C686.433411,219.961548 713.026245,180.652145 740.456726,140.104523 
	C740.456726,180.919968 740.456726,220.207825 740.456726,260.173157 
	C737.337036,260.173157 734.397095,260.173157 730.963867,260.173309 
z"/>
<path fill="#ECEFF1" opacity="1.000000" stroke="none" 
	d="
M417.398132,375.752563 
	C416.606537,372.303711 416.110687,368.960876 416.070190,365.612488 
	C416.062958,365.015167 417.921082,363.916901 418.955872,363.868896 
	C423.253387,363.669434 427.584351,363.562103 431.859924,363.926727 
	C433.040497,364.027374 434.551300,365.691864 435.044739,366.972412 
	C435.600952,368.416016 435.063263,370.246613 435.208954,371.890472 
	C435.471741,374.855042 434.343323,376.099945 431.263153,375.962799 
	C426.799164,375.763947 422.321289,375.876770 417.398132,375.752563 
z"/>
<path fill="#E9EBEE" opacity="1.000000" stroke="none" 
	d="
M333.853210,386.274658 
	C336.200317,385.400787 338.511780,384.970215 340.823303,384.539612 
	C341.130951,386.558777 342.236908,388.977509 341.490387,390.469055 
	C340.906921,391.634796 337.525391,392.583740 336.297546,391.927002 
	C334.932648,391.196930 334.599792,388.537415 333.853210,386.274658 
z"/>
<path fill="#ECEEF1" opacity="1.000000" stroke="none" 
	d="
M366.057922,366.785797 
	C366.918671,365.152161 367.755219,362.929138 368.773468,362.842590 
	C373.320465,362.455963 377.939453,362.448273 382.485443,362.843903 
	C383.625305,362.943115 385.396637,365.036865 385.408905,366.229095 
	C385.421051,367.410431 383.809814,369.069519 382.510284,369.723053 
	C377.024689,372.481750 369.654572,371.205505 366.057922,366.785797 
z"/>
<path fill="#ECEFF1" opacity="1.000000" stroke="none" 
	d="
M194.925415,368.112152 
	C194.885468,361.223724 199.764511,364.517181 202.516800,363.969513 
	C206.075928,363.261322 205.853073,365.995392 205.885300,368.390656 
	C205.988358,376.050446 206.002563,375.728577 199.408279,376.015747 
	C192.734909,376.306335 195.519806,371.574738 194.925415,368.112152 
z"/>
<path fill="#ECEEF1" opacity="1.000000" stroke="none" 
	d="
M536.171021,367.034302 
	C533.511475,363.755951 535.450867,361.736481 538.042419,361.424500 
	C542.238831,360.919403 546.572754,361.222717 550.809204,361.613007 
	C551.909790,361.714386 552.864014,363.404388 553.885498,364.364685 
	C552.828247,365.464996 551.813904,367.457367 550.706299,367.510681 
	C545.998108,367.737091 541.262268,367.388794 536.171021,367.034302 
z"/>
<path fill="#EFF1F3" opacity="1.000000" stroke="none" 
	d="
M592.059082,369.981079 
	C591.981445,372.054657 591.903625,373.664124 591.775391,376.318542 
	C588.263184,375.750031 583.732910,376.270508 582.505310,374.500427 
	C580.972473,372.290222 581.052124,367.488770 582.543457,365.150269 
	C583.611389,363.475708 588.141968,364.009399 591.730286,363.466705 
	C591.869019,366.020233 591.963989,367.768585 592.059082,369.981079 
z"/>
</svg>