<?xml version="1.0" encoding="UTF-8" standalone="no"?>
<!DOCTYPE svg PUBLIC "-//W3C//DTD SVG 1.1//EN" "http://www.w3.org/Graphics/SVG/1.1/DTD/svg11.dtd">
<!-- Created with Vectornator (http://vectornator.io/) -->
<svg height="100%" stroke-miterlimit="10" style="fill-rule:nonzero;clip-rule:evenodd;stroke-linecap:round;stroke-linejoin:round;" version="1.1" viewBox="0 0 1000 1000" width="100%" xml:space="preserve" xmlns="http://www.w3.org/2000/svg" xmlns:xlink="http://www.w3.org/1999/xlink">
<defs/>
<g id="레이어-1">
<g opacity="1">
<path d="M77.7161 353.825C59.7761 353.825 45.2328 368.368 45.2328 386.308L45.2328 613.692C45.2328 631.632 59.7761 646.175 77.7161 646.175L597.45 646.175C615.39 646.175 629.933 631.632 629.933 613.692L629.933 386.308C629.933 368.368 615.39 353.825 597.45 353.825L77.7161 353.825ZM136.846 517.815L186.079 567.098L161.462 567.098L161.412 594.709L112.077 594.709L112.128 567.098L87.5119 567.098L136.846 517.815ZM136.846 529.438L107.306 558.876L120.401 558.876L120.351 586.487L153.189 586.487L153.24 558.876L166.233 558.876L136.846 529.438Z" fill="#ffffff" fill-rule="evenodd" opacity="1" stroke="none"/>
<path d="M694.9 353.825C676.96 353.825 662.417 368.368 662.417 386.308L662.417 613.692C662.417 631.632 676.96 646.175 694.9 646.175L922.284 646.175C940.224 646.175 954.767 631.632 954.767 613.692L954.767 386.308C954.767 368.368 940.224 353.825 922.284 353.825L694.9 353.825ZM815.444 509.288L825.697 509.288L825.697 559.231L836.71 559.231L836.71 568.164L825.697 568.164L825.697 591.461L815.444 591.461L815.444 568.164L778.494 568.164L778.494 559.942L815.444 509.288ZM816.155 522.738L789.204 559.231L816.155 559.231L816.155 522.738Z" fill="#ffffff" fill-rule="evenodd" opacity="1" stroke="none"/>
</g>
</g>
</svg>
