<?xml version="1.0" encoding="UTF-8" standalone="no"?>
<!DOCTYPE svg PUBLIC "-//W3C//DTD SVG 1.1//EN" "http://www.w3.org/Graphics/SVG/1.1/DTD/svg11.dtd">
<!-- Created with Vectornator (http://vectornator.io/) -->
<svg height="100%" stroke-miterlimit="10" style="fill-rule:nonzero;clip-rule:evenodd;stroke-linecap:round;stroke-linejoin:round;" version="1.1" viewBox="0 0 1000 1000" width="100%" xml:space="preserve" xmlns="http://www.w3.org/2000/svg" xmlns:vectornator="http://vectornator.io" xmlns:xlink="http://www.w3.org/1999/xlink">
<defs>
<clipPath id="TextBounds">
<rect height="271" width="735.957" x="130.934" y="493.546"/>
</clipPath>
</defs>
<g id="레이어-1" vectornator:layerName="레이어 1">
<g opacity="1">
<g opacity="1">
<path d="M77.7162 235.454C59.7762 235.454 45.2329 249.997 45.2329 267.937L45.2329 495.321C45.2329 513.261 59.7762 527.804 77.7162 527.804L597.45 527.804C615.39 527.804 629.933 513.261 629.933 495.321L629.933 267.937C629.933 249.997 615.39 235.454 597.45 235.454L77.7162 235.454ZM136.846 399.444L186.079 448.727L161.462 448.727L161.412 476.338L112.077 476.338L112.128 448.727L87.512 448.727L136.846 399.444ZM136.846 411.067L107.306 440.505L120.401 440.505L120.351 468.116L153.189 468.116L153.24 440.505L166.233 440.505L136.846 411.067Z" fill="#ffffff" fill-rule="evenodd" opacity="1" stroke="none"/>
<path d="M694.9 235.454C676.96 235.454 662.417 249.997 662.417 267.937L662.417 495.321C662.417 513.261 676.96 527.804 694.9 527.804L922.284 527.804C940.224 527.804 954.767 513.261 954.767 495.321L954.767 267.937C954.767 249.997 940.224 235.454 922.284 235.454L694.9 235.454ZM815.444 390.917L825.697 390.917L825.697 440.86L836.71 440.86L836.71 449.793L825.697 449.793L825.697 473.09L815.444 473.09L815.444 449.793L778.494 449.793L778.494 441.571L815.444 390.917ZM816.155 404.367L789.204 440.86L816.155 440.86L816.155 404.367Z" fill="#ffffff" fill-rule="evenodd" opacity="1" stroke="none"/>
</g>
<g fill="#ffffff" opacity="1" stroke="none">
<path clip-path="url(#TextBounds)" d="M297.223 690.706C286.903 690.706 278.353 688.756 271.573 684.856C264.793 680.956 259.123 675.946 254.563 669.826L259.603 665.866C264.043 671.626 269.173 676.216 274.993 679.636C280.813 683.056 288.283 684.766 297.403 684.766C307.963 684.766 316.093 682.336 321.793 677.476C327.493 672.616 330.343 665.506 330.343 656.146C330.343 651.466 329.623 647.506 328.183 644.266C326.743 641.026 324.763 638.356 322.243 636.256C319.723 634.156 316.783 632.476 313.423 631.216C310.063 629.956 306.463 628.966 302.623 628.246L290.563 625.906C284.443 624.706 279.283 623.056 275.083 620.956C270.883 618.856 267.493 616.396 264.913 613.576C262.333 610.756 260.473 607.636 259.333 604.216C258.193 600.796 257.623 597.106 257.623 593.146C257.623 587.746 258.553 583.006 260.413 578.926C262.273 574.846 264.913 571.456 268.333 568.756C271.753 566.056 275.863 564.046 280.663 562.726C285.463 561.406 290.803 560.746 296.683 560.746C306.043 560.746 313.813 562.366 319.993 565.606C326.173 568.846 331.123 573.226 334.843 578.746L329.803 582.346C326.203 577.306 321.703 573.436 316.303 570.736C310.903 568.036 304.243 566.686 296.323 566.686C286.243 566.686 278.383 568.846 272.743 573.166C267.103 577.486 264.283 584.086 264.283 592.966C264.283 597.406 265.003 601.156 266.443 604.216C267.883 607.276 269.833 609.826 272.293 611.866C274.753 613.906 277.663 615.556 281.023 616.816C284.383 618.076 288.043 619.066 292.003 619.786L304.063 622.126C310.423 623.446 315.733 625.186 319.993 627.346C324.253 629.506 327.643 632.026 330.163 634.906C332.683 637.786 334.453 640.966 335.473 644.446C336.493 647.926 337.003 651.646 337.003 655.606C337.003 667.006 333.433 675.706 326.293 681.706C319.153 687.706 309.463 690.706 297.223 690.706Z" fill-rule="evenodd"/>
<path clip-path="url(#TextBounds)" d="M364.903 555.346L371.203 555.346L371.203 611.146L371.743 611.146C373.543 606.706 376.693 602.896 381.193 599.716C385.693 596.536 391.903 594.946 399.823 594.946C409.903 594.946 417.613 597.916 422.953 603.856C428.293 609.796 430.963 618.466 430.963 629.866L430.963 688.546L424.663 688.546L424.663 630.946C424.663 620.386 422.413 612.676 417.913 607.816C413.413 602.956 406.903 600.526 398.383 600.526C394.903 600.526 391.513 601.006 388.213 601.966C384.913 602.926 382.003 604.366 379.483 606.286C376.963 608.206 374.953 610.606 373.453 613.486C371.953 616.366 371.203 619.726 371.203 623.566L371.203 688.546L364.903 688.546L364.903 555.346Z" fill-rule="evenodd"/>
<path clip-path="url(#TextBounds)" d="M468.763 568.846C466.843 568.846 465.463 568.396 464.623 567.496C463.783 566.596 463.363 565.486 463.363 564.166L463.363 562.546C463.363 561.226 463.753 560.116 464.533 559.216C465.313 558.316 466.663 557.866 468.583 557.866C470.503 557.866 471.883 558.316 472.723 559.216C473.563 560.116 473.983 561.226 473.983 562.546L473.983 564.166C473.983 565.486 473.593 566.596 472.813 567.496C472.033 568.396 470.683 568.846 468.763 568.846ZM465.523 597.106L471.823 597.106L471.823 688.546L465.523 688.546L465.523 597.106Z" fill-rule="evenodd"/>
<path clip-path="url(#TextBounds)" d="M511.603 602.686L495.223 602.686L495.223 597.106L511.603 597.106L511.603 564.526C511.603 558.406 514.543 555.346 520.423 555.346L538.423 555.346L538.423 560.926L517.903 560.926L517.903 597.106L538.423 597.106L538.423 602.686L517.903 602.686L517.903 688.546L511.603 688.546L511.603 602.686Z" fill-rule="evenodd"/>
<path clip-path="url(#TextBounds)" d="M572.443 688.546C567.283 688.546 564.703 686.026 564.703 680.986L564.703 602.686L548.143 602.686L548.143 597.106L560.023 597.106C562.063 597.106 563.413 596.686 564.073 595.846C564.733 595.006 565.063 593.566 565.063 591.526L565.063 571.186L571.003 571.186L571.003 597.106L592.423 597.106L592.423 602.686L571.003 602.686L571.003 682.966L590.983 682.966L590.983 688.546L572.443 688.546Z" fill-rule="evenodd"/>
<path clip-path="url(#TextBounds)" d="M715.363 688.546L715.363 660.646L650.923 660.646L650.923 654.706L712.843 562.906L721.483 562.906L721.483 655.066L742.003 655.066L742.003 660.646L721.483 660.646L721.483 688.546L715.363 688.546ZM657.223 655.066L715.363 655.066L715.363 569.566L715.003 569.566L657.223 655.066Z" fill-rule="evenodd"/>
</g>
</g>
</g>
</svg>
